Coordinates
version=1
nRows=29
nColumns=24
inDegrees=yes

Units are S.I. units (second, meters, Newtons, ...)
Angles are in degrees.

endheader
time	pelvis_tilt	pelvis_list	pelvis_rotation	pelvis_tx	pelvis_ty	pelvis_tz	hip_flexion_r	hip_adduction_r	hip_rotation_r	knee_angle_r	ankle_angle_r	subtalar_angle_r	mtp_angle_r	hip_flexion_l	hip_adduction_l	hip_rotation_l	knee_angle_l	ankle_angle_l	subtalar_angle_l	mtp_angle_l	lumbar_extension	lumbar_bending	lumbar_rotation
      3.56500000	     -1.29918125	      5.36414008	      5.33352356	     -1.57812635	      0.91703876	      0.22456129	     30.31697264	     -5.15532007	    -12.45504477	    -11.20284545	     11.54506372	      5.71968712	      0.00000000	    -12.15483324	     10.54676386	      4.16177175	    -16.03104571	     25.79753749	     -0.88668150	      0.00000000	    -12.44433648	     -6.43018069	    -15.70619223
      3.57000000	     -1.08807817	      5.09365796	      5.45210647	     -1.57031983	      0.91646895	      0.22483818	     30.14157026	     -4.83658929	    -12.05836884	    -11.99535803	     10.85467002	      4.63759420	      0.00000000	    -12.22056561	      9.99541141	      3.18805158	    -17.25336077	     26.19231805	      0.60205585	      0.00000000	    -12.64466982	     -6.06553793	    -15.75618509
      3.57500000	     -1.06159543	      4.83098683	      5.47490626	     -1.56259436	      0.91563896	      0.22539669	     30.18809042	     -4.44966632	    -11.31891943	    -12.80123056	      9.97755954	      3.30583207	      0.00000000	    -11.98345835	      9.43724586	      1.92850444	    -18.64493993	     26.58858191	      2.30421618	      0.00000000	    -12.62462266	     -5.77196292	    -15.67645392
      3.58000000	     -1.05062962	      4.49086133	      5.48660731	     -1.55484745	      0.91488761	      0.22599981	     30.23791770	     -3.97782568	    -10.61124656	    -13.58995764	      9.00774703	      2.00571404	      0.00000000	    -11.67787546	      8.77552266	      0.69647119	    -20.11752333	     26.86682192	      3.93180025	      0.00000000	    -12.57038412	     -5.39457260	    -15.57155734
      3.58500000	     -1.04351087	      4.11206877	      5.45686963	     -1.54713941	      0.91421156	      0.22672295	     30.31113795	     -3.44041331	     -9.88526092	    -14.40519833	      7.97332169	      0.69485643	      0.00000000	    -11.33519666	      8.05544150	     -0.47045635	    -21.63520065	     27.02812730	      5.50590555	      0.00000000	    -12.51095313	     -4.99186819	    -15.39453017
      3.59000000	     -1.06675082	      3.64582441	      5.43300349	     -1.53941612	      0.91362447	      0.22743603	     30.41091872	     -2.83005474	     -9.26889025	    -15.21682200	      6.91482832	     -0.50683633	      0.00000000	    -10.90422142	      7.22561324	     -1.58086620	    -23.23857733	     27.04227945	      6.97647083	      0.00000000	    -12.39956257	     -4.48159936	    -15.24748647
      3.59500000	     -1.10120673	      3.13372994	      5.40377454	     -1.53171673	      0.91311014	      0.22818164	     30.53064919	     -2.17071375	     -8.67699020	    -16.04666018	      5.87489553	     -1.70923432	      0.00000000	    -10.41617451	      6.33253001	     -2.57997229	    -24.91303176	     26.91468257	      8.35652663	      0.00000000	    -12.27079433	     -3.92527516	    -15.06365621
      3.60000000	     -1.14774569	      2.57985351	      5.37144066	     -1.52401582	      0.91266878	      0.22892762	     30.66572747	     -1.47260660	     -8.13165688	    -16.88838954	      4.87786802	     -2.87789026	      0.00000000	     -9.87249659	      5.38646663	     -3.46154658	    -26.65388941	     26.62630579	      9.62826279	      0.00000000	    -12.11886863	     -3.32080222	    -14.86372619
      3.60500000	     -1.20259685	      1.99409762	      5.44328766	     -1.51633812	      0.91231611	      0.22952087	     30.81140359	     -0.82409439	     -7.87057765	    -17.76549584	      4.05123856	     -3.82290721	      0.00000000	     -9.25445593	      4.37735518	     -4.13283350	    -28.49986593	     26.18763371	     10.85374161	      0.00000000	    -11.95530732	     -2.66201976	    -14.76253138
      3.61000000	     -1.25077016	      1.40459525	      5.31028101	     -1.50859562	      0.91197492	      0.23038967	     30.94381326	     -0.02592441	     -7.20030658	    -18.59868556	      3.12483079	     -5.10209581	      0.00000000	     -8.64709053	      3.40539564	     -4.85278330	    -30.32416034	     25.52690066	     11.84340932	      0.00000000	    -11.77876033	     -2.03233568	    -14.45710919
      3.61500000	     -1.30110890	      0.79170566	      5.28040305	     -1.50085337	      0.91171306	      0.23107996	     31.06419715	      0.70997361	     -6.83474344	    -19.43676146	      2.38908683	     -6.12337768	      0.00000000	     -7.97642187	      2.39188599	     -5.35036010	    -32.23535252	     24.70291604	     12.76968047	      0.00000000	    -11.59434652	     -1.35394578	    -14.24782429
      3.62000000	     -1.34282895	      0.18486825	      5.24608530	     -1.49310959	      0.91149669	      0.23176361	     31.15270580	      1.43999114	     -6.49867575	    -20.24202247	      1.76697914	     -7.09124809	      0.00000000	     -7.27445624	      1.39033518	     -5.72848521	    -34.18987461	     23.69278540	     13.58414529	      0.00000000	    -11.41657648	     -0.67976991	    -14.04688577
      3.62500000	     -1.37453492	     -0.41793715	      5.21881783	     -1.48535050	      0.91133089	      0.23246213	     31.19947070	      2.16234795	     -6.21302178	    -21.00145544	      1.26881853	     -7.98369636	      0.00000000	     -6.54330284	      0.39573125	     -5.99369790	    -36.17590587	     22.49485389	     14.27967390	      0.00000000	    -11.24271526	     -0.01773541	    -13.85575719
      3.63000000	     -1.38751755	     -1.03670883	      5.19061230	     -1.47752574	      0.91123201	      0.23309466	     31.19501697	      2.87598472	     -6.09291775	    -21.71658851	      0.95500649	     -8.64851523	      0.00000000	     -5.80159313	     -0.60118061	     -6.16309925	    -38.17097404	     21.10987492	     14.83602256	      0.00000000	    -11.07197398	      0.66882539	    -13.64509899
      3.63500000	     -1.40474357	     -1.62142978	      5.15005576	     -1.46985040	      0.91112859	      0.23380619	     31.15126504	      3.59807854	     -5.81131726	    -22.34209751	      0.67222982	     -9.44195741	      0.00000000	     -4.99977496	     -1.53977087	     -6.20861431	    -40.20069457	     19.58413670	     15.24194885	      0.00000000	    -10.92796240	      1.31492250	    -13.46225669
      3.64000000	     -1.40311875	     -2.19492821	      5.08698998	     -1.46203959	      0.91114398	      0.23449543	     31.03224709	      4.30553857	     -5.65246812	    -22.89032309	      0.58218003	    -10.01745655	      0.00000000	     -4.21609648	     -2.43847364	     -6.20432305	    -42.17001748	     17.82945018	     15.40510945	      0.00000000	    -10.77222229	      1.93826368	    -13.23104338
      3.64500000	     -1.41675870	     -2.74921969	      5.03101836	     -1.45447382	      0.91110672	      0.23527250	     30.90961739	      5.01480192	     -5.43156144	    -23.37974262	      0.53634965	    -10.62686945	      0.00000000	     -3.33717256	     -3.31359269	     -6.12821847	    -44.19464517	     16.02912821	     15.49501734	      0.00000000	    -10.65109352	      2.53523525	    -13.05711712
      3.65000000	     -1.42391578	     -3.28595362	      4.95118602	     -1.44686521	      0.91115571	      0.23603270	     30.72965449	      5.71377599	     -5.25997296	    -23.79221360	      0.63222819	    -11.08784542	      0.00000000	     -2.45406839	     -4.13349174	     -6.01291506	    -46.15662663	     14.08224776	     15.30107787	      0.00000000	    -10.52556872	      3.10709568	    -12.84363731
      3.65500000	     -1.43649457	     -3.80568439	      4.86239433	     -1.43931827	      0.91124606	      0.23680729	     30.51786284	      6.40607230	     -5.09688750	    -24.13689541	      0.81152553	    -11.48744841	      0.00000000	     -1.53376058	     -4.90641982	     -5.85156305	    -48.08206906	     12.06557409	     14.87360753	      0.00000000	    -10.40361141	      3.65423511	    -12.61053652
      3.66000000	     -1.46373885	     -4.30426435	      4.76122842	     -1.43184173	      0.91135286	      0.23758522	     30.28799921	      7.08836290	     -4.93335749	    -24.41990717	      1.05043371	    -11.87320371	      0.00000000	     -0.56402741	     -5.63318700	     -5.68703755	    -49.97579627	     10.02153016	     14.18795240	      0.00000000	    -10.27778939	      4.17228801	    -12.37524571
      3.66500000	     -1.50698394	     -4.77575229	      4.63359411	     -1.42448197	      0.91149106	      0.23835836	     30.04766190	      7.75860909	     -4.72395098	    -24.65405543	      1.32386648	    -12.20711624	      0.00000000	      0.45248571	     -6.29893359	     -5.51991895	    -51.82817146	      7.97849220	     13.23506054	      0.00000000	    -10.15951667	      4.66548638	    -12.15054274
      3.67000000	     -1.56715573	     -5.22333450	      4.49516396	     -1.41716826	      0.91165629	      0.23914074	     29.79327065	      8.41500336	     -4.50219246	    -24.83519147	      1.63033286	    -12.54483545	      0.00000000	      1.50789464	     -6.91478269	     -5.35350813	    -53.62838441	      5.98262369	     12.01427699	      0.00000000	    -10.02896566	      5.12078280	    -11.89551128
      3.67500000	     -1.63635982	     -5.64756439	      4.34259486	     -1.40990604	      0.91187182	      0.23994086	     29.51987812	      9.06114497	     -4.24161958	    -24.97385050	      1.95866149	    -12.86866851	      0.00000000	      2.58731415	     -7.48181409	     -5.19191472	    -55.36591636	      4.07497824	     10.53607443	      0.00000000	     -9.89954188	      5.54123158	    -11.61887548
      3.68000000	     -1.67989809	     -6.04695391	      4.16830425	     -1.40274849	      0.91219038	      0.24073650	     29.20623151	      9.69195758	     -3.98045184	    -25.08920572	      2.27028336	    -13.17076263	      0.00000000	      3.65298833	     -8.00490226	     -5.05449903	    -57.04151196	      2.29004154	      8.83797002	      0.00000000	     -9.82843508	      5.93890248	    -11.32964541
      3.68500000	     -1.77423956	     -6.41785302	      3.99465540	     -1.39559087	      0.91249741	      0.24155625	     28.90327432	     10.30522127	     -3.64869765	    -25.14101831	      2.58863734	    -13.53251640	      0.00000000	      4.78047313	     -8.47828526	     -4.91096965	    -58.65345217	      0.70234071	      6.95701581	      0.00000000	     -9.69464310	      6.28954537	    -11.02727155
      3.69000000	     -1.75493776	     -6.80473581	      3.80681714	     -1.38841206	      0.91303061	      0.24234285	     28.46096918	     10.93344502	     -3.39570375	    -25.16852147	      2.95123547	    -13.76733014	      0.00000000	      5.77421073	     -8.97008687	     -4.80551885	    -60.17923224	     -0.66297256	      4.96823039	      0.00000000	     -9.70455973	      6.67579276	    -10.71079481
      3.69500000	     -1.96292091	     -7.07708866	      3.59415959	     -1.38144919	      0.91332613	      0.24324572	     28.23956897	     11.47592712	     -2.89173878	    -25.17068376	      3.15741334	    -14.23944684	      0.00000000	      7.04045945	     -9.29757900	     -4.66640307	    -61.66816906	     -1.79974187	      2.87192763	      0.00000000	     -9.47475877	      6.88816575	    -10.40613003
      3.70000000	     -1.98650516	     -7.34823231	      3.42976101	     -1.37446596	      0.91396099	      0.24401950	     27.80517783	     11.98885823	     -2.54323310	    -25.14719507	      3.42568608	    -14.58420650	      0.00000000	      8.09729880	     -9.61435814	     -4.50280173	    -63.04959288	     -2.67509482	      0.72527681	      0.00000000	     -9.47108962	      7.12131894	    -10.09635784
      3.70500000	     -2.07902184	     -7.56662934	      3.23682643	     -1.36744227	      0.91458959	      0.24482975	     27.39779577	     12.46604996	     -2.07735211	    -25.07425175	      3.68572601	    -14.97797408	      0.00000000	      9.21049475	     -9.85886532	     -4.35100843	    -64.34221156	     -3.32207955	     -1.38938296	      0.00000000	     -9.37439457	      7.28661681	     -9.78452441
